<?xml version="1.0" encoding="UTF-8"?>
<!DOCTYPE svg PUBLIC "-//W3C//DTD SVG 1.1//EN" "http://www.w3.org/Graphics/SVG/1.1/DTD/svg11.dtd">
<!-- Creator: CorelDRAW 2019 -->
<svg xmlns="http://www.w3.org/2000/svg" xml:space="preserve" width="21.8747mm" height="21.8747mm" version="1.1" style="shape-rendering:geometricPrecision; text-rendering:geometricPrecision; image-rendering:optimizeQuality; fill-rule:evenodd; clip-rule:evenodd"
viewBox="0 0 34.22 34.22"
 xmlns:xlink="http://www.w3.org/1999/xlink"
 xmlns:xodm="http://www.corel.com/coreldraw/odm/2003">
 <defs>
  <style type="text/css">
   <![CDATA[
    .str0 {stroke:#FEFEFE;stroke-width:0.31;stroke-miterlimit:22.9256}
    .fil3 {fill:none}
    .fil2 {fill:#151515}
    .fil0 {fill:#FF0930}
    .fil1 {fill:white}
   ]]>
  </style>
 </defs>
 <g id="Слой_x0020_1">
  <metadata id="CorelCorpID_0Corel-Layer"/>
  <g id="_713560176">
   <path class="fil0" d="M26.25 11.78c1.13,-0.28 1,1.37 1,2.01l0 6.25c-0,1.4 -0.02,2.14 -1.05,2.84 -0.83,0.56 -2.51,1.6 -3.34,2.1 -0.74,0.45 -3.29,2.23 -4.02,2.22 -1.11,-0.01 -1.08,-1.27 -1.08,-2.06l-0.01 -6.25c0,-1.26 0.05,-1.64 0.75,-2.35 0.25,-0.25 3.41,-2.18 3.81,-2.44 0.62,-0.4 1.29,-0.79 1.92,-1.2 0.47,-0.31 1.49,-0.98 2,-1.11zm-20.9 9.03c0,1.58 0.41,2.64 1.66,3.51 0.48,0.33 1.08,0.67 1.61,0.97 0.56,0.32 1.09,0.62 1.64,0.95l3.28 1.89c0.96,0.54 2.27,1.51 3.62,1.51 1.42,0 2.46,-0.85 3.7,-1.59 1.62,-0.95 3.25,-2.02 4.87,-2.97 2.2,-1.29 3.14,-1.9 3.14,-4.71l0 -6.87c0,-0.89 -0.03,-1.51 -0.34,-2.26 -0.26,-0.61 -0.7,-1.09 -1.13,-1.42 -0.62,-0.47 -5.62,-3.31 -6.44,-3.79 -1.15,-0.67 -2.33,-1.49 -3.6,-1.49 -1.1,0 -1.81,0.46 -2.58,0.89l-4.38 2.53c-1.06,0.63 -3.53,1.87 -4.17,2.74 -0.59,0.79 -0.77,1.41 -0.8,2.64 -0.06,2.46 -0.07,4.98 -0.07,7.45z"/>
   <path class="fil1" d="M20.49 20.27c0.1,-0.02 0.4,-0.2 0.49,-0.27 0.12,-0.09 0.09,-0.08 0.11,-0.27 0.15,-1.3 0.87,-2.29 1.78,-3.08 0.41,-0.35 1.25,-0.9 1.93,-1.09 1.07,-0.29 1.46,0.47 1.53,1.39 0.14,1.85 -0.54,3.11 -1.78,4.23 -0.8,0.72 -3.35,2.33 -3.48,-0.18 -0.14,0.06 -0.47,0.25 -0.57,0.34l-0 2.18c-0.03,0.14 -1.18,0.75 -1.24,0.75l-0 -5.31c0.05,-0.12 1.08,-0.72 1.24,-0.78l0 2.09zm5.76 -8.49c-0.51,0.13 -1.53,0.8 -2,1.11 -0.64,0.41 -1.3,0.8 -1.92,1.2 -0.4,0.26 -3.57,2.19 -3.81,2.44 -0.7,0.71 -0.75,1.09 -0.75,2.35l0.01 6.25c0.01,0.79 -0.02,2.05 1.08,2.06 0.73,0.01 3.28,-1.77 4.02,-2.22 0.83,-0.5 2.51,-1.54 3.34,-2.1 1.03,-0.7 1.05,-1.43 1.05,-2.84l-0 -6.25c-0,-0.64 0.13,-2.29 -1,-2.01z"/>
   <path class="fil2" d="M22.9 20.75c-0.04,-0.22 -0.06,-2.44 -0.01,-2.66 0.09,-0.43 0.52,-0.3 0.99,-0.28 0.35,0.02 0.98,-0.02 1.25,0.09 0.08,0.2 -0.01,0.31 -0.12,0.45l-1.7 2.12c-0.16,0.2 -0.2,0.27 -0.41,0.27zm-2.4 -0.48l0 -2.09c-0.16,0.06 -1.19,0.66 -1.24,0.78l0 5.31c0.07,-0 1.21,-0.62 1.24,-0.75l0 -2.18c0.11,-0.09 0.43,-0.28 0.57,-0.34 0.12,2.51 2.68,0.9 3.48,0.18 1.24,-1.11 1.93,-2.38 1.78,-4.23 -0.07,-0.92 -0.46,-1.68 -1.53,-1.39 -0.67,0.18 -1.52,0.73 -1.93,1.09 -0.92,0.79 -1.64,1.78 -1.78,3.08 -0.02,0.19 0.01,0.18 -0.11,0.27 -0.09,0.07 -0.39,0.24 -0.49,0.27z"/>
   <path class="fil1" d="M22.9 20.75c0.21,0 0.26,-0.07 0.41,-0.27l1.7 -2.12c0.11,-0.14 0.2,-0.26 0.12,-0.45 -0.28,-0.12 -0.9,-0.08 -1.25,-0.09 -0.47,-0.02 -0.9,-0.16 -0.99,0.28 -0.05,0.23 -0.03,2.44 0.01,2.66z"/>
  </g>
  <rect class="fil3 str0" x="0.16" y="0.16" width="33.91" height="33.91"/>
 </g>
</svg>
